<?xml version="1.0" encoding="utf-8"?>
<!-- Generator: Adobe Illustrator 16.0.3, SVG Export Plug-In . SVG Version: 6.00 Build 0)  -->
<!DOCTYPE svg PUBLIC "-//W3C//DTD SVG 1.1//EN" "http://www.w3.org/Graphics/SVG/1.1/DTD/svg11.dtd">
<svg version="1.1" id="frontend" xmlns="http://www.w3.org/2000/svg" xmlns:xlink="http://www.w3.org/1999/xlink" x="0px" y="0px"
	 width="81px" height="81px" viewBox="0 0 81 81" enable-background="new 0 0 81 81" xml:space="preserve">
<g>
	<g>
		<path fill="#FFFFFF" d="M63.747,79.316c-0.111,0-0.223-0.029-0.322-0.087L14.469,50.964c-0.201-0.115-0.324-0.328-0.324-0.559
			V2.704c0-0.232,0.126-0.447,0.329-0.562l2.498-1.413c0.098-0.056,0.208-0.084,0.317-0.084c0.111,0,0.223,0.029,0.322,0.087
			l48.957,28.265c0.2,0.115,0.324,0.328,0.324,0.559v47.701c0,0.232-0.126,0.447-0.329,0.562l-2.499,1.414
			C63.966,79.288,63.856,79.316,63.747,79.316"/>
		<path fill="#211E1F" d="M17.289,1.291l48.957,28.265v47.701l-2.499,1.414L14.79,50.405V2.704L17.289,1.291 M17.289,0
			c-0.219,0-0.438,0.056-0.635,0.167l-2.499,1.414C13.75,1.81,13.5,2.239,13.5,2.704v47.701c0,0.461,0.247,0.887,0.645,1.117
			l48.957,28.266c0.2,0.115,0.423,0.173,0.645,0.173c0.22,0,0.439-0.056,0.636-0.168l2.498-1.413
			c0.405-0.229,0.655-0.658,0.655-1.123V29.556c0-0.461-0.246-0.887-0.645-1.118L17.934,0.173C17.735,0.058,17.512,0,17.289,0"/>
		<polygon fill="#717272" points="63.896,35.077 14.951,6.856 14.791,2.75 63.748,30.746 		"/>
		<path fill="#E4E4E3" d="M58.542,35.906L20.708,14.084c-0.093-0.053-0.151-0.149-0.154-0.256l-0.052-1.678
			c-0.008-0.24,0.25-0.396,0.459-0.276l37.841,21.598c0.093,0.053,0.152,0.151,0.155,0.259l0.045,1.902
			C59.007,35.872,58.75,36.025,58.542,35.906"/>
		<path fill="#FCFDFF" d="M24.624,12.878L15.612,7.61c0,0-0.002-0.981-0.002-2.346c0-1.365,1.209-0.439,1.209-0.439l6.469,3.656
			c0.829,0.468,1.341,1.347,1.339,2.3L24.624,12.878z"/>
		<path fill="#929191" d="M60.856,31.584c0.081-0.52,0.527-0.692,0.997-0.386c0.469,0.307,0.783,0.977,0.702,1.497
			c-0.081,0.52-0.528,0.691-0.997,0.385C61.089,32.773,60.775,32.104,60.856,31.584"/>
		<path fill="#929191" d="M58.541,30.248c0.081-0.521,0.527-0.692,0.997-0.387c0.468,0.308,0.783,0.978,0.702,1.497
			c-0.081,0.521-0.528,0.692-0.997,0.386C58.773,31.437,58.458,30.768,58.541,30.248"/>
		<path fill="#929191" d="M56.349,28.786c0.082-0.52,0.527-0.691,0.997-0.385c0.469,0.307,0.783,0.977,0.702,1.496
			c-0.081,0.521-0.527,0.692-0.996,0.386C56.582,29.977,56.268,29.307,56.349,28.786"/>
		<polygon fill="none" stroke="#211E1F" stroke-width="0.323" stroke-linejoin="round" stroke-miterlimit="10" points="
			14.791,50.405 63.748,78.671 63.748,30.97 14.791,2.704 		"/>
		<g opacity="0.2">
			<g>
				<defs>
					<rect id="SVGID_1_" x="63.747" y="29.556" width="2.499" height="49.115"/>
				</defs>
				<clipPath id="SVGID_2_">
					<use xlink:href="#SVGID_1_"  overflow="visible"/>
				</clipPath>
				<polygon clip-path="url(#SVGID_2_)" fill="#211E1F" points="63.748,30.97 66.246,29.556 66.246,77.257 63.748,78.671 				"/>
			</g>
		</g>
		<polygon fill="none" stroke="#211E1F" stroke-width="0.323" stroke-linejoin="round" stroke-miterlimit="10" points="
			63.748,30.97 66.246,29.556 66.246,77.257 63.748,78.671 		"/>
		<polygon fill="#183151" points="14.951,11.769 63.896,39.989 63.896,43.227 14.791,14.962 		"/>
		<polygon fill="#183151" points="14.951,11.769 63.896,39.989 63.896,43.227 14.791,14.962 		"/>
	</g>
	<g>
		<defs>
			<polygon id="SVGID_3_" points="14.95,50.451 63.896,78.672 63.896,43.227 14.79,14.961 			"/>
		</defs>
		<clipPath id="SVGID_4_">
			<use xlink:href="#SVGID_3_"  overflow="visible"/>
		</clipPath>
		<path clip-path="url(#SVGID_4_)" fill="#342563" d="M18.392,27.423c0.2-1.281,1.3-1.707,2.457-0.95
			c1.157,0.756,1.932,2.408,1.732,3.689c-0.2,1.281-1.3,1.707-2.457,0.95C18.966,30.356,18.191,28.703,18.392,27.423"/>
		<path clip-path="url(#SVGID_4_)" fill="#60C7D9" d="M18.392,38.378c0.2-1.281,1.3-1.707,2.457-0.95
			c1.157,0.757,1.932,2.408,1.732,3.689c-0.2,1.282-1.3,1.707-2.457,0.951C18.966,41.312,18.191,39.659,18.392,38.378"/>
		<path clip-path="url(#SVGID_4_)" fill="#F2EA3F" d="M18.426,49.123c0.2-1.281,1.3-1.707,2.457-0.95
			c1.157,0.756,1.932,2.408,1.732,3.689c-0.2,1.282-1.3,1.707-2.457,0.95C19,52.057,18.226,50.404,18.426,49.123"/>
		<path clip-path="url(#SVGID_4_)" fill="#4181C3" d="M18.392,17.315c0.2-1.281,1.3-1.707,2.457-0.95
			c1.157,0.756,1.932,2.408,1.732,3.689c-0.2,1.281-1.3,1.706-2.457,0.95C18.966,20.249,18.191,18.596,18.392,17.315"/>
		<polygon clip-path="url(#SVGID_4_)" fill="#E4E4E3" points="24.351,21.354 51.879,37.205 51.879,41.006 24.191,25.11 		"/>
		<polygon clip-path="url(#SVGID_4_)" fill="#E4E4E3" points="24.351,16.263 32.948,21.267 32.948,23.76 24.397,18.831 		"/>
		<polygon clip-path="url(#SVGID_4_)" fill="#E4E4E3" points="24.351,19.47 28.445,21.847 28.445,22.911 24.397,20.609 		"/>
		<polygon clip-path="url(#SVGID_4_)" fill="#E4E4E3" points="24.351,32.467 51.879,48.318 51.879,52.119 24.191,36.224 		"/>
		<polygon clip-path="url(#SVGID_4_)" fill="#E4E4E3" points="24.351,27.376 41.748,37.566 41.748,40.06 24.397,29.944 		"/>
		<polygon clip-path="url(#SVGID_4_)" fill="#E4E4E3" points="24.351,30.582 28.445,32.96 28.445,34.025 24.397,31.723 		"/>
		<polygon clip-path="url(#SVGID_4_)" fill="#E4E4E3" points="24.351,43.58 51.879,59.432 51.879,63.232 24.191,47.337 		"/>
		<polygon clip-path="url(#SVGID_4_)" fill="#E4E4E3" points="24.351,38.489 48.093,52.257 48.093,54.75 24.397,41.057 		"/>
		<polygon clip-path="url(#SVGID_4_)" fill="#E4E4E3" points="24.351,41.696 28.445,44.073 28.445,45.139 24.397,42.835 		"/>
		<polygon clip-path="url(#SVGID_4_)" fill="#E4E4E3" points="24.351,54.693 51.879,70.545 51.879,74.346 24.191,58.45 		"/>
		<polygon clip-path="url(#SVGID_4_)" fill="#E4E4E3" points="24.351,49.603 34.312,55.45 34.312,57.943 24.397,52.17 		"/>
		<polygon clip-path="url(#SVGID_4_)" fill="#E4E4E3" points="24.351,52.81 28.445,55.187 28.445,56.252 24.397,53.948 		"/>
	</g>
</g>
<g>
	<g>
		<path fill="#FFFFFF" d="M63.747,80.355c-0.111,0-0.223-0.029-0.322-0.087L14.469,52.003c-0.201-0.115-0.324-0.328-0.324-0.559
			V3.743c0-0.232,0.126-0.447,0.329-0.562l2.498-1.413c0.098-0.056,0.208-0.084,0.317-0.084c0.111,0,0.223,0.029,0.322,0.087
			l48.957,28.265c0.2,0.115,0.324,0.328,0.324,0.559v47.701c0,0.232-0.126,0.447-0.329,0.562l-2.499,1.414
			C63.966,80.327,63.856,80.355,63.747,80.355"/>
		<path fill="#211E1F" d="M17.289,2.33l48.957,28.265v47.701l-2.499,1.414L14.79,51.444V3.743L17.289,2.33 M17.289,1.039
			c-0.219,0-0.438,0.056-0.635,0.167L14.155,2.62C13.75,2.849,13.5,3.278,13.5,3.743v47.701c0,0.461,0.247,0.887,0.645,1.117
			l48.957,28.266c0.2,0.115,0.423,0.173,0.645,0.173c0.22,0,0.439-0.056,0.636-0.168l2.498-1.413
			c0.405-0.229,0.655-0.658,0.655-1.123V30.595c0-0.461-0.246-0.887-0.645-1.118L17.934,1.212
			C17.735,1.097,17.512,1.039,17.289,1.039"/>
		<polygon fill="#717272" points="63.896,36.116 14.951,7.896 14.791,3.789 63.748,31.785 		"/>
		<path fill="#E4E4E3" d="M58.542,36.945L20.708,15.123c-0.093-0.053-0.151-0.149-0.154-0.256l-0.052-1.678
			c-0.008-0.24,0.25-0.396,0.459-0.276l37.841,21.598c0.093,0.053,0.152,0.151,0.155,0.259l0.045,1.902
			C59.007,36.911,58.75,37.064,58.542,36.945"/>
		<path fill="#FCFDFF" d="M24.624,13.917l-9.012-5.268c0,0-0.002-0.981-0.002-2.346c0-1.365,1.209-0.439,1.209-0.439l6.469,3.656
			c0.829,0.468,1.341,1.347,1.339,2.3L24.624,13.917z"/>
		<path fill="#929191" d="M60.856,32.623c0.081-0.52,0.527-0.692,0.997-0.386c0.469,0.307,0.783,0.977,0.702,1.497
			c-0.081,0.52-0.528,0.691-0.997,0.385C61.089,33.813,60.775,33.143,60.856,32.623"/>
		<path fill="#929191" d="M58.541,31.287c0.081-0.521,0.527-0.692,0.997-0.387c0.468,0.308,0.783,0.978,0.702,1.497
			c-0.081,0.521-0.528,0.692-0.997,0.386C58.773,32.476,58.458,31.807,58.541,31.287"/>
		<path fill="#929191" d="M56.349,29.825c0.082-0.52,0.527-0.691,0.997-0.385c0.469,0.307,0.783,0.977,0.702,1.496
			c-0.081,0.521-0.527,0.692-0.996,0.386C56.582,31.016,56.268,30.346,56.349,29.825"/>
		<polygon fill="none" stroke="#211E1F" stroke-width="0.323" stroke-linejoin="round" stroke-miterlimit="10" points="
			14.791,51.444 63.748,79.71 63.748,32.009 14.791,3.743 		"/>
		<g opacity="0.2">
			<g>
				<defs>
					<rect id="SVGID_5_" x="63.747" y="30.595" width="2.499" height="49.115"/>
				</defs>
				<clipPath id="SVGID_6_">
					<use xlink:href="#SVGID_5_"  overflow="visible"/>
				</clipPath>
				<polygon clip-path="url(#SVGID_6_)" fill="#211E1F" points="63.748,32.009 66.246,30.595 66.246,78.296 63.748,79.71 				"/>
			</g>
		</g>
		<polygon fill="none" stroke="#211E1F" stroke-width="0.323" stroke-linejoin="round" stroke-miterlimit="10" points="
			63.748,32.009 66.246,30.595 66.246,78.296 63.748,79.71 		"/>
		<polygon fill="#183151" points="14.951,12.808 63.896,41.028 63.896,44.266 14.791,16.001 		"/>
		<polygon fill="#183151" points="14.951,12.808 63.896,41.028 63.896,44.266 14.791,16.001 		"/>
	</g>
	<g>
		<defs>
			<polygon id="SVGID_7_" points="14.95,51.49 63.896,79.711 63.896,44.266 14.79,16 			"/>
		</defs>
		<clipPath id="SVGID_8_">
			<use xlink:href="#SVGID_7_"  overflow="visible"/>
		</clipPath>
		<path clip-path="url(#SVGID_8_)" fill="#342563" d="M18.392,28.462c0.2-1.281,1.3-1.707,2.457-0.95
			c1.157,0.756,1.932,2.408,1.732,3.689c-0.2,1.281-1.3,1.707-2.457,0.95C18.966,31.396,18.191,29.742,18.392,28.462"/>
		<path clip-path="url(#SVGID_8_)" fill="#60C7D9" d="M18.392,39.417c0.2-1.281,1.3-1.707,2.457-0.95
			c1.157,0.757,1.932,2.408,1.732,3.689c-0.2,1.282-1.3,1.707-2.457,0.951C18.966,42.351,18.191,40.698,18.392,39.417"/>
		<path clip-path="url(#SVGID_8_)" fill="#F2EA3F" d="M18.426,50.162c0.2-1.281,1.3-1.707,2.457-0.95
			c1.157,0.756,1.932,2.408,1.732,3.689c-0.2,1.282-1.3,1.707-2.457,0.95C19,53.096,18.226,51.443,18.426,50.162"/>
		<path clip-path="url(#SVGID_8_)" fill="#4181C3" d="M18.392,18.354c0.2-1.281,1.3-1.707,2.457-0.95
			c1.157,0.756,1.932,2.408,1.732,3.689c-0.2,1.281-1.3,1.706-2.457,0.95C18.966,21.288,18.191,19.635,18.392,18.354"/>
		<polygon clip-path="url(#SVGID_8_)" fill="#E4E4E3" points="24.351,22.393 51.879,38.244 51.879,42.045 24.191,26.149 		"/>
		<polygon clip-path="url(#SVGID_8_)" fill="#E4E4E3" points="24.351,17.302 32.948,22.306 32.948,24.799 24.397,19.87 		"/>
		<polygon clip-path="url(#SVGID_8_)" fill="#E4E4E3" points="24.351,20.509 28.445,22.886 28.445,23.95 24.397,21.648 		"/>
		<polygon clip-path="url(#SVGID_8_)" fill="#E4E4E3" points="24.351,33.506 51.879,49.357 51.879,53.158 24.191,37.263 		"/>
		<polygon clip-path="url(#SVGID_8_)" fill="#E4E4E3" points="24.351,28.415 41.748,38.605 41.748,41.099 24.397,30.983 		"/>
		<polygon clip-path="url(#SVGID_8_)" fill="#E4E4E3" points="24.351,31.621 28.445,33.999 28.445,35.064 24.397,32.762 		"/>
		<polygon clip-path="url(#SVGID_8_)" fill="#E4E4E3" points="24.351,44.619 51.879,60.471 51.879,64.271 24.191,48.376 		"/>
		<polygon clip-path="url(#SVGID_8_)" fill="#E4E4E3" points="24.351,39.528 48.093,53.296 48.093,55.789 24.397,42.096 		"/>
		<polygon clip-path="url(#SVGID_8_)" fill="#E4E4E3" points="24.351,42.735 28.445,45.112 28.445,46.178 24.397,43.874 		"/>
		<polygon clip-path="url(#SVGID_8_)" fill="#E4E4E3" points="24.351,55.732 51.879,71.584 51.879,75.385 24.191,59.489 		"/>
		<polygon clip-path="url(#SVGID_8_)" fill="#E4E4E3" points="24.351,50.642 34.312,56.489 34.312,58.982 24.397,53.209 		"/>
		<polygon clip-path="url(#SVGID_8_)" fill="#E4E4E3" points="24.351,53.849 28.445,56.226 28.445,57.291 24.397,54.987 		"/>
	</g>
</g>
</svg>
